<?xml version="1.0" encoding="UTF-8" standalone="no"?>
<svg width="36px" height="19px" viewBox="0 0 36 19" version="1.1" xmlns="http://www.w3.org/2000/svg" xmlns:xlink="http://www.w3.org/1999/xlink" xmlns:sketch="http://www.bohemiancoding.com/sketch/ns">
    <!-- Generator: Sketch 3.3.2 (12043) - http://www.bohemiancoding.com/sketch -->
    <title>Rectangle 59 + Fill 16 Copy 2</title>
    <desc>Created with Sketch.</desc>
    <defs></defs>
    <g id="Иконки" stroke="none" stroke-width="1" fill="none" fill-rule="evenodd" sketch:type="MSPage">
        <g id="Победа" sketch:type="MSArtboardGroup" transform="translate(-613.000000, -428.000000)">
            <g id="Rectangle-59-+-Fill-16-Copy-2" sketch:type="MSLayerGroup" transform="translate(631.000000, 437.500000) rotate(-180.000000) translate(-631.000000, -437.500000) translate(613.000000, 428.000000)">
                <rect id="Rectangle-59" fill="#9FBBE4" sketch:type="MSShapeGroup" x="0" y="-5.68434189e-14" width="36" height="19" rx="8"></rect>
                <path d="M18.3259622,-3.63051741 C18.3259622,-3.6305174 17.4612223,-3.77551735 17.3102223,-3.63051735 L13.2072225,0.255982615 C13.0592225,0.400982615 12.4202225,0.634982599 12.4202225,0.839982599 C12.4202225,1.0429826 12.5022225,1.2369826 12.6502225,1.3809826 C12.7992225,1.5259826 12.9962225,1.6039826 13.2072225,1.6039826 C13.4182225,1.6039826 13.6152225,1.5259826 13.7662225,1.3809826 L17.3102223,-2.63051745 L17.3102223,1.3694826 L17.3102223,22.4219821 C17.3102223,22.8439821 18.3259622,22.8439821 18.3259622,22.4219821 L18.3259622,-2.63051745 L21.9282225,1.3379826 C22.0782225,1.4829826 22.2752225,1.5629826 22.4862225,1.5629826 C22.6972225,1.5629826 22.8942225,1.4829826 23.0432225,1.3379826 C23.1932225,1.1939826 23.2752225,1.0019826 23.2752225,0.796982599 C23.2752225,0.591982599 22.4759622,0.400982615 22.3259622,0.255982615 L18.3259622,-3.63051741 Z" id="Fill-16-Copy" fill="#FFFFFF" sketch:type="MSShapeGroup" transform="translate(17.847722, 9.521760) rotate(-270.000000) translate(-17.847722, -9.521760) "></path>
            </g>
        </g>
    </g>
</svg>